<svg xmlns="http://www.w3.org/2000/svg" xml:space="preserve" viewBox="0 0 100 125">
 <path d="m25.1 88.3 6.2-7.1c-1.1-7.5 1-14.9 6-20.6L55 40.4c1-1.2.8-3-.4-4-1.2-1-3.1-1-4.1.2l-22 25.2c-.6.7-1.7.8-2.5.1-.7-.6-.8-1.7-.1-2.5l8.8-10.1c1-1.2.8-3-.4-4-1.2-1-3-1-4 .2L18.4 58.9C14 64 12.2 70.8 13.6 77.7l.1.4-7.4 8.5c-.8.9-.7 2.2.2 3l17.3 15.1c.9.8 2.2.7 3-.2l3.3-3.9-4.4-3.9c-2.5-2.1-2.8-5.9-.6-8.4zM58.4 46.7c.7.6 1.3 1.3 1.7 2.1l4.4-5c1-1.2.8-3-.4-4-1.2-1.1-3-1-4 .1l-4.6 5.3c1 .2 2 .7 2.9 1.5zM56.3 27.7c1.4 0 2.5-1.1 2.5-2.5V17c0-1.4-1.1-2.5-2.5-2.5s-2.5 1.1-2.5 2.5v8.2c0 1.4 1.2 2.5 2.5 2.5zM41 29.9c.5.8 1.3 1.3 2.2 1.3.4 0 .9-.1 1.2-.3 1.2-.7 1.6-2.2.9-3.4l-4.1-7.1c-.7-1.2-2.2-1.6-3.4-.9-1.2.7-1.6 2.2-.9 3.4ZM68.2 30.9c.4.2.8.3 1.3.3.9 0 1.7-.4 2.2-1.3l4.1-7.1c.7-1.2.3-2.7-.9-3.4-1.2-.7-2.7-.3-3.4.9l-4.1 7.1c-.8 1.2-.4 2.8.8 3.5z"/>
 <path d="M93.2 64.4c-1.2-1.1-3-1-4 .1L77.6 77.8c-.6.7-1.8.8-2.5.2-.7-.6-.8-1.8-.2-2.5l16-18.3c1-1.2.8-3-.4-4.1-1.2-1.1-3.1-1-4.1.2l-16 18.3c-.6.7-1.8.8-2.5.2-.7-.6-.8-1.8-.2-2.5l18.5-21.2c1-1.2.9-3-.4-4-1.2-1.1-3.1-1-4.1.2L63.3 65.4c-.6.7-1.8.8-2.5.2-.7-.6-.8-1.8-.2-2.5l16-18.3c1-1.2.9-3-.4-4-1.2-1.1-3.1-1-4.1.2l-22 25.2c-.6.7-1.8.8-2.5.2-.7-.6-.8-1.8-.2-2.5l8.8-10.1c1-1.1.8-2.9-.4-4-1.2-1.1-3-1-4 .1L40.2 63.2c-4.5 5.1-6.2 12-4.9 18.8l.1.4-7.4 8.4c-.8.9-.7 2.2.2 3L45.6 109c.9.8 2.2.7 3-.2l8.2-9.4h.4c6.3-.2 11.9-2.8 15.9-7.4l20.6-23.6c1-1.2.8-2.9-.5-4z"/>
</svg>
