<svg xmlns="http://www.w3.org/2000/svg" xml:space="preserve" viewBox="0 0 100 125">
 <g transform="translate(0 14)">
  <path d="M50 61.3c-6.9 0-13.2 4-16.3 10.1-.9 1.8-.1 4 1.7 4.9 1.8.9 4 .1 4.9-1.7 1.8-3.7 5.6-6 9.7-6 4.2 0 7.9 2.3 9.7 6 .6 1.3 1.9 2.1 3.3 2.1.5 0 1.1-.1 1.6-.4 1.8-.9 2.6-3.1 1.7-4.9-3.1-6.1-9.4-10.1-16.3-10.1Z"/>
  <circle cx="36.9" cy="50.1" r="6.9"/>
  <circle cx="63.1" cy="50.1" r="6.9"/>
  <path d="M90.1 47.2c-.3-7.3-1.5-14.7-2.5-19.5 1.9-5.3 2.3-14.4-10.3-24.4-1.5-1.2-3.7-1.1-5.1.2-9 8.4-26.2 6.3-40.5 5.6-19.1-1-20.6 9.1-19.1 16.9-1 4.7-2.5 12.9-2.8 21.2-.1 1.6.6 3.1 1.6 4.2v12.1c0 18.7 15.2 34 34 34h9.1c18.7 0 34-15.2 34-34V51.4c1-1.1 1.7-2.5 1.6-4.2zm-35.6 43h-9.1c-14.7 0-26.7-12-26.7-26.7V52.1c1.4-1 2.4-2.6 2.4-4.5.1-6 .8-10.7 1.9-14.4 5.1 2.3 15 3.9 26.5 3.9 12.1 0 22.5-1.8 27.3-4.3 1.1 3.8 1.9 8.6 2 14.8 0 1.9 1 3.5 2.4 4.5v11.5c0 14.6-12 26.6-26.7 26.6z"/>
 </g>
</svg>
