<svg xmlns="http://www.w3.org/2000/svg" xml:space="preserve" viewBox="0 0 100 125">
 <path d="M58 77.3H42c-2 0-3.6 1.6-3.6 3.6s1.6 3.6 3.6 3.6h16c2 0 3.6-1.6 3.6-3.6S60 77.3 58 77.3zM42.5 61.7c0-.2 0-.5-.1-.7.8.3 1.5.5 2.2.7.2 0 .3.1.5.1.9 0 1.8-.6 2-1.6.3-1.1-.4-2.3-1.5-2.5-1.1-.3-2.5-.8-4-1.5-.8-.4-1.7-.8-2.6-1.4-.5-.3-.9-.6-1.4-.9l-.5-.3c-1.2-.8-2.3-1.7-3.3-2.6-.8-.8-2.2-.7-3 .1-.8.8-.7 2.2.1 3 .6.6 1.3 1.1 2 1.7-2.2 1.1-3.8 3.4-3.8 6 0 3.7 3 6.7 6.7 6.7s6.7-3.1 6.7-6.8zM67.1 55.7c.7-.6 1.4-1.1 2-1.7.8-.8.9-2.1.1-3-.8-.8-2.1-.9-3-.1-1 1-2.3 2-3.8 2.9-.4.3-.9.6-1.4.9-.9.5-1.8 1-2.6 1.4-1.4.7-2.8 1.2-4.1 1.5-1.1.3-1.8 1.4-1.5 2.5.2.9 1.1 1.6 2 1.6.2 0 .3 0 .5-.1.7-.2 1.4-.4 2.2-.7 0 .2-.1.5-.1.7a6.7 6.7 0 0 0 13.4 0c.1-2.6-1.5-4.8-3.7-5.9z"/>
 <path d="M90.1 55.2c-.3-7.3-1.5-14.7-2.5-19.5 1.9-5.3 2.3-14.4-10.3-24.4-1.5-1.2-3.7-1.1-5.1.2-9 8.4-26.2 6.3-40.5 5.6-19.1-1-20.6 9.1-19.1 16.9-1 4.7-2.5 12.9-2.8 21.2-.1 1.6.6 3.1 1.6 4.2v12.1c0 18.7 15.2 34 34 34h9.1c18.7 0 34-15.2 34-34V59.4c1-1.1 1.7-2.5 1.6-4.2zm-35.6 43h-9.1c-14.7 0-26.7-12-26.7-26.7V60.1c1.4-1 2.4-2.6 2.4-4.5.1-6 .8-10.7 1.9-14.4 5.1 2.3 15 3.9 26.5 3.9 12.1 0 22.5-1.8 27.3-4.3 1.1 3.8 1.9 8.6 2 14.8 0 1.9 1 3.5 2.4 4.5v11.5c0 14.6-12 26.6-26.7 26.6z"/>
</svg>
