<svg xmlns="http://www.w3.org/2000/svg" xml:space="preserve" viewBox="0 0 100 125">
 <path d="M47.1 61.1c3.4 0 6.1-2.8 6.1-6.1s-2.8-6.1-6.1-6.1c-3.4 0-6.1 2.8-6.1 6.1s2.7 6.1 6.1 6.1zm0-8.2c1.2 0 2.1 1 2.1 2.1s-1 2.1-2.1 2.1c-1.2 0-2.1-1-2.1-2.1s.9-2.1 2.1-2.1zM62.5 63.3c-3.4 0-6.1 2.8-6.1 6.1s2.8 6.1 6.1 6.1c3.4 0 6.1-2.8 6.1-6.1s-2.7-6.1-6.1-6.1zm0 8.3c-1.2 0-2.1-1-2.1-2.1s1-2.1 2.1-2.1c1.2 0 2.1 1 2.1 2.1s-.9 2.1-2.1 2.1zM46.4 80c-4.2 0-7.5 3.4-7.5 7.5s3.4 7.5 7.5 7.5c4.2 0 7.6-3.4 7.6-7.5S50.6 80 46.4 80Zm0 11.1c-2 0-3.5-1.6-3.5-3.5 0-2 1.6-3.5 3.5-3.5 2 0 3.6 1.6 3.6 3.5s-1.6 3.5-3.6 3.5z"/>
 <path d="m22.7 17.8 5.7 82.8c.2 3.2 2.9 5.7 6.1 5.7h33.4c3.2 0 5.9-2.5 6.1-5.7l5.7-82.8Zm52.7 4-.9 13.8c-1.5-1.5-3.6-2.4-5.7-2.4-2.2 0-4.2.8-5.8 2.4-.8.8-1.8 1.2-2.9 1.2-1.1 0-2.1-.4-2.9-1.2-1.5-1.5-3.6-2.4-5.8-2.4-2.2 0-4.2.8-5.8 2.4-.8.8-1.8 1.2-2.9 1.2-1.1 0-2.1-.4-2.9-1.2l-.1-.1c-3.1-3.1-8.1-3.2-11.3-.2l-.3.4-1-14h48.3ZM70 100.3c-.1 1.1-1 2-2.1 2H34.5c-1.1 0-2-.9-2.1-2l-4.1-59.5 2.7-2.6c1.6-1.6 4.2-1.5 5.8.1l.1.1c1.5 1.5 3.6 2.4 5.8 2.4 2.2 0 4.2-.8 5.8-2.4.8-.8 1.8-1.2 2.9-1.2 1.1 0 2.1.4 2.9 1.2 1.5 1.5 3.6 2.4 5.8 2.4 2.2 0 4.2-.8 5.8-2.4.8-.8 1.8-1.2 2.9-1.2 1.1 0 2.1.4 2.9 1.2l2.5 2.5z"/>
</svg>
