<svg xmlns="http://www.w3.org/2000/svg" xml:space="preserve" viewBox="0 0 100 125">
 <path d="M46.525 75.253c-2.223 0-3.8-.853-4.82-1.708-4.056-3.396-5.437-11.526-4.103-24.17.298-3.019-.5-5.42-2.508-7.543l-.006-.006c-2.31-2.465-3.347-5.295-2.845-7.762.302-1.485 1.287-3.53 4.258-4.843 3.75-1.664 5.988-.564 6.99.242 2.01 1.615 2.68 4.658 1.882 8.568-.218.994-.581 4.525 3.654 9.305 7.451 8.381 10.485 15.202 9.021 20.272-.984 3.41-3.887 5.835-8.628 7.207-1.066.31-2.03.438-2.895.438zm-8.94-35.768c2.7 2.856 3.819 6.205 3.422 10.238C39.85 60.69 40.905 68.412 43.9 70.92c1.155.967 2.646 1.165 4.569.609 3.536-1.024 5.653-2.663 6.291-4.872.769-2.657-.047-7.773-8.293-17.05-5.164-5.826-4.827-10.532-4.442-12.284.5-2.454.241-4.453-.678-5.192-.916-.735-2.56-.18-3.46.22-1.315.58-2.084 1.386-2.29 2.395-.279 1.366.446 3.094 1.988 4.739z"/>
 <path d="M24.242 84.865a1.713 1.713 0 0 1-1.703-1.562C19.906 53.328 28.607 32.48 34.224 31.12a1.715 1.715 0 0 1 2.066 1.26 1.713 1.713 0 0 1-1.248 2.064c-2.571.937-11.71 18.775-9.093 48.56a1.71 1.71 0 0 1-1.707 1.861z"/>
 <path d="M24.244 84.865H9.47a1.712 1.712 0 0 1 0-3.423h13.132c.801-14.61 6.926-35.779 13.51-41.143a1.709 1.709 0 0 1 2.408.246 1.71 1.71 0 0 1-.246 2.407c-5.472 4.458-11.92 25.523-12.32 40.248a1.712 1.712 0 0 1-1.71 1.665zM90.626 69.114c-3.738 0-7.737-4.053-9.244-5.58a1.724 1.724 0 0 1-.47-.921c-.938-5.635-1.337-9.982-1.219-13.29.018-.483.238-.937.608-1.248 3.944-3.325 7.251-4.468 10.087-3.496 2.899.992 4.854 4.032 5.98 9.295.016.076.026.151.032.23.57 7.526-.45 12.054-3.207 14.247a4.582 4.582 0 0 1-2.567.763zM84.2 61.512c3.871 3.83 6.153 4.618 6.988 4.068 1.065-.855 2.362-3.567 1.808-11.103-.83-3.81-2.115-6.111-3.716-6.66-1.453-.496-3.587.328-6.183 2.392-.027 2.876.336 6.59 1.103 11.303z"/>
 <path d="M74.62 69.389c-.211 0-.42-.01-.632-.032-2.327-.232-4.504-1.743-6.47-4.488l-.724-1.044c-1.085-1.576-2.571-3.734-4.69-6.348-.634-.764-2.603-3.135-1.644-5.23.556-1.218 1.815-1.855 3.74-1.894l1.206-.039c2.295-.065 4.463-.126 6.116-1.013 4.033-2.137 8.545-4.155 11.188-1.021a1.71 1.71 0 1 1-2.614 2.207c-.466-.55-1.692-.959-6.963 1.835-2.358 1.265-5.038 1.34-7.629 1.414l-1.204.038c-.24.005-.42.021-.558.042.133.291.414.775 1.008 1.49 2.215 2.733 3.745 4.954 4.864 6.577l.695 1.005c1.34 1.87 2.734 2.936 4.02 3.063 1.01.109 2.07-.369 3.167-1.39a81.149 81.149 0 0 0 1.584-1.48c1.09-1.038 1.879-1.79 2.679-2.24a1.706 1.706 0 0 1 2.33.65 1.709 1.709 0 0 1-.648 2.33c-.43.244-1.16.938-2.003 1.74-.481.457-1.02.97-1.625 1.519-1.643 1.53-3.392 2.309-5.194 2.309z"/>
 <path d="M85.966 84.865h-6.389c-.477 0-.933-.2-1.257-.55a1.722 1.722 0 0 1-.448-1.297c.28-3.546 1.629-7.081 4.109-10.772-1.181-1.161-3.1-2.335-5.723-3.5a1.714 1.714 0 0 1-.869-2.26 1.717 1.717 0 0 1 2.26-.869c3.92 1.744 6.502 3.557 7.893 5.544.42.6.413 1.398-.018 1.99-2.107 2.898-3.417 5.628-3.973 8.29h4.415a1.712 1.712 0 0 1 0 3.424zM89.675 56.4a1.71 1.71 0 0 1-1.64-1.218c-.447-1.488-1.125-1.85-1.597-1.994a1.71 1.71 0 1 1 .994-3.274c1.895.575 3.2 2.015 3.882 4.281a1.714 1.714 0 0 1-1.64 2.205z"/>
 <path d="M35.675 76.652c-10.833 0-20.86-2.566-28.409-9.712a1.71 1.71 0 0 1 .026-2.51c6.204-5.632 11.786-9.863 17.061-12.932a1.71 1.71 0 1 1 1.722 2.958c-4.666 2.714-9.605 6.398-15.062 11.234 15.359 12.733 41.371 6.914 62.521.315a1.71 1.71 0 0 1 2.142 1.124 1.707 1.707 0 0 1-1.124 2.142c-12.267 3.83-26.131 7.381-38.877 7.381zM62.519 54.12c-.358 0-.721-.113-1.03-.346-4.661-3.522-9.795-5.364-15.26-5.474a1.71 1.71 0 0 1-1.676-1.745c.018-.947.734-1.691 1.745-1.677 6.2.125 12.006 2.2 17.255 6.164a1.711 1.711 0 0 1-1.034 3.078zm-30.174-2.91a1.712 1.712 0 0 1-.657-3.293 43.53 43.53 0 0 1 7.306-2.315 1.71 1.71 0 1 1 .733 3.343A40.047 40.047 0 0 0 33 51.08c-.214.088-.436.13-.654.13z"/>
 <path d="M12.892 63.53c-.265 0-.53-.06-.774-.184-4.3-2.18-8.177-4.754-11.525-7.647a1.712 1.712 0 1 1 2.238-2.59c2.44 2.11 5.188 4.04 8.195 5.76-.435-2.832-1.724-5.275-3.896-7.408a1.71 1.71 0 1 1 2.397-2.443c3.555 3.491 5.261 7.819 5.075 12.863a1.707 1.707 0 0 1-1.71 1.65zM87.678 47.73a1.713 1.713 0 0 1-1.576-2.379c3.093-7.308 5.532-13.23 7.055-17.126a1.711 1.711 0 1 1 3.188 1.246c-1.535 3.924-3.986 9.877-7.09 17.214a1.713 1.713 0 0 1-1.577 1.045zM91.727 49.156a1.712 1.712 0 0 1-1.492-2.548c2.796-4.99 4.966-9.518 6.452-13.458a1.708 1.708 0 0 1 2.205-.999c.884.334 1.33 1.321.998 2.205-1.547 4.1-3.789 8.785-6.668 13.924-.314.56-.896.876-1.495.876zM70.508 84.865h-6.39c-.477 0-.933-.2-1.257-.55a1.722 1.722 0 0 1-.448-1.297c.281-3.548 1.63-7.083 4.11-10.774-1.182-1.16-3.102-2.333-5.725-3.498a1.714 1.714 0 0 1-.869-2.26 1.716 1.716 0 0 1 2.26-.869c3.92 1.744 6.503 3.557 7.894 5.544.42.6.413 1.4-.017 1.99-2.107 2.896-3.418 5.626-3.974 8.29h4.416a1.712 1.712 0 0 1 0 3.424zM31.774 84.865h-2.339a1.712 1.712 0 0 1 0-3.423h.686c.106-2.158.331-4.289.704-6.708a1.712 1.712 0 0 1 3.382.523c-.444 2.885-.666 5.332-.722 7.934-.02.93-.78 1.674-1.711 1.674z"/>
 <path d="M59.098 84.865h-3.422c-.477 0-.933-.2-1.258-.55a1.722 1.722 0 0 1-.448-1.297c.297-3.732 1.005-8.115 4.021-12.326a1.711 1.711 0 0 1 2.783 1.993c-2.063 2.88-2.846 5.95-3.205 8.756h1.529a1.712 1.712 0 0 1 0 3.424z"/>
</svg>
