<svg xmlns="http://www.w3.org/2000/svg" xml:space="preserve" viewBox="0 0 512 640">
 <path d="M455 510.3v-48.6c0-5.5-4.3-10.4-9.8-10.4H439v-119h6.2c5.5 0 9.8-4.9 9.8-10.4v-48.6c.1-5.4-4.2-9.9-9.6-10H70.8c-5.4 0-9.8 4.4-9.8 9.8V321.9c0 5.5 4.3 10.4 9.8 10.4H77v119h-6.2c-5.5 0-9.8 4.9-9.8 10.4v48.6c-.1 5.4 4.2 9.8 9.6 9.9H445.2c5.4 0 9.8-4.3 9.8-9.7v-.2zm-20-10.1H81v-29h354Zm-62.7-70.8-45.7-97.2H418Zm46.7-53.7v75.6h-35.3zm-58.2 75.5h-91.4l45.7-97.3zm-102.9-21.8-45.7-97.2h91.3zm-11.4 21.8h-91.4l45.7-97.3zm-102.9-21.8L98 332.2h91.3zm-11.4 21.8H97v-75.5Zm302.8-139H81v-29h354zM79.2 108.9l69.7 69.7c-9.2 15.8-6.7 35.8 6.2 48.7 15.7 15.6 41.1 15.6 56.7-.1 7.5-7.5 11.7-17.7 11.7-28.4-.1-22-18-39.8-40-39.7-7.2-.1-14.2 1.8-20.4 5.4L93.3 94.8c-3.9-3.9-10.2-4-14.1-.1-3.9 3.8-4 10.1 0 14.2-.1-.1-.1-.1 0 0zm89.9 76.1s.1 0 0 0c3.8-3.8 8.9-5.8 14.3-5.8 11-.1 19.9 8.7 20.1 19.6.1 5.4-2.1 10.6-5.9 14.3-7.9 7.8-20.6 7.8-28.4 0-7.8-7.7-7.8-20.3-.1-28.1zM332.6 239c22.1 0 40.1-17.9 40.1-40 0-7.2-1.9-14.3-5.6-20.5l69.7-69.7c3.9-3.9 3.9-10.2 0-14.1-3.9-3.9-10.2-3.9-14.1 0L353 164.6c-6.2-3.6-13.3-5.5-20.4-5.4-22 0-39.9 17.9-39.9 39.9s17.9 39.9 39.9 39.9zm-14.2-54.2v.2c3.8-3.7 8.9-5.8 14.1-5.7 10.9-.2 20 8.6 20.1 19.5.1 5.4-2 10.6-5.9 14.4-7.9 7.9-20.6 7.9-28.4 0-3.8-3.8-5.9-8.9-5.9-14.2.1-5.4 2.2-10.5 6-14.2z"/>
</svg>
