<svg xmlns="http://www.w3.org/2000/svg" xml:space="preserve" viewBox="0 0 100 125">
 <switch transform="translate(0 12)">
  <g>
   <path d="m87.2 93.2-2.6-9.7c-1.7-6.6-7.2-11.5-14-12.4l-6-.8-1.7-5.3c4.8-3.4 8.5-8.6 10-15 1.7-.9 4.5-3.2 4.5-8.9 0-4.2-.7-6.7-2.1-8-.3-.3-.7-.5-1-.7-.4-3.9-1.7-7.5-3.6-10.6C74.3 16 73 8.3 71 3.4c-.6-1.4-2.6-1.1-3 .3-1.7 6-4.7 8.1-7 8.9-3.3-1.8-7-2.9-11.1-2.9s-7.7 1.1-11.1 2.9c-2.2-.7-5.3-2.8-7-8.9-.2-1.4-2.2-1.7-2.8-.3-2 4.9-3.3 12.6.4 18.3-1.9 3.2-3.2 6.7-3.6 10.6-.3.2-.7.4-.9.6-1.5 1.4-2.2 4-2.2 8.2 0 5.7 2.8 8 4.5 8.9 1.5 6.3 5.1 11.6 10 15l-1.8 5.2-6 .8c-6.8.9-12.3 5.8-14 12.4l-2.6 9.7c-.3 1.1-.1 2.2.6 3 .6.8 1.6 1.3 2.7 1.3h67.8c1.1 0 2.1-.5 2.7-1.3.7-.8.9-1.8.6-2.9zM38.9 72.3l1.8-5.2c2.9 1.4 6.1 2.2 9.4 2.2 3.3 0 6.4-.8 9.3-2.2l1.8 5.2c-6.7 4.8-15.7 4.8-22.3 0zm11-7c-9.2 0-17.3-7.2-19.1-17-.1-.7-.8-1.4-1.5-1.6-.3-.1-2.7-.9-2.7-5.6 0-2.5.3-3.8.6-4.5h.6c0 .7.5 3.2 1.1 3.2h2.8c.6 0 1.1-.5 1.1-1.2 0 0 .6-7.3 1.2-11.9.1-1.1 1.1-1.8 2-1.5 3.6.8 8.6 1.3 14.1 1.3s10.6-.5 14.1-1.3c.9-.2 1.9.4 2 1.5.6 4.7 1.2 11.9 1.2 11.9 0 .6.5 1.2 1.1 1.2h2.8c.6 0 1.1-2.6 1.1-3.2h.6c.3.7.6 2 .6 4.5 0 4.7-2.5 5.5-2.7 5.5-.8.2-1.4.8-1.5 1.6-2.1 9.9-10.1 17.1-19.5 17.1z"/>
   <path d="M39.3 39.6c0 1.9 1.5 3.4 3.4 3.4s3.4-1.5 3.4-3.4c0-.3-.1-.5-.2-.8l.4.2c.2.1.4.1.5.1.4 0 .8-.2 1-.6.3-.6.1-1.2-.5-1.5l-6.8-3.6c-.6-.3-1.2-.1-1.5.5-.3.6-.1 1.2.5 1.5l1.9 1c-1.1.4-2.1 1.7-2.1 3.2zM60.8 33.8c-.3-.6-1-.8-1.5-.5L52.5 37c-.6.3-.8 1-.5 1.5.2.4.6.6 1 .6.2 0 .4 0 .5-.1l.4-.2c-.1.3-.2.5-.2.8 0 1.9 1.5 3.4 3.4 3.4s3.4-1.5 3.4-3.4c0-1.5-.9-2.7-2.3-3.2l1.9-1c.8-.4 1-1.1.7-1.6zM58 47.7H42c-.6 0-1.2.3-1.6.7-.4.5-.6 1.1-.5 1.7.6 5.1 5 8.9 10.1 8.9s9.5-3.8 10.1-8.9c.1-.6-.1-1.2-.5-1.7s-1-.7-1.6-.7zm-.8 4.2H42.7c-.3-.6-.6-1.3-.7-2h15.9c-.1.7-.4 1.4-.7 2z"/>
  </g>
 </switch>
</svg>
