<svg xmlns="http://www.w3.org/2000/svg" viewBox="0 0 58 85">
 <path d="M31 56.29V74a2 2 0 0 1-4 0V56.29C24.391 58.082 21.722 59 19 59c-3.922 0-7.734-1.906-11.414-5.586a2 2 0 0 1 2.828-2.828C13.401 53.573 16.256 55 19 55c2.744 0 5.599-1.427 8.586-4.414A1.994 1.994 0 0 1 29 50c.552 0 1.052.224 1.414.586C33.401 53.573 36.256 55 39 55c2.744 0 5.599-1.427 8.586-4.414a2 2 0 0 1 2.828 2.828C46.734 57.094 42.922 59 39 59c-2.722 0-5.391-.918-8-2.71ZM7.897 73.368a2 2 0 0 1-3.794 1.264C1.369 66.432 0 58.218 0 50c0-5.493 1.504-10.034 4.721-16.29C8.791 25.797 9 25.321 9 23c0-4.36-.93-8.386-2.789-12.106A2 2 0 1 1 9.79 9.106C11.929 13.386 13 18.026 13 23c0 1.937-.534 3.918-1.575 6.288-.4.91-.862 1.858-1.496 3.085-.223.433-1.339 2.56-1.65 3.167C5.328 41.278 4 45.285 4 50c0 7.782 1.298 15.569 3.897 23.368Zm42.206 0C52.703 65.568 54 57.782 54 50c0-4.715-1.328-8.722-4.279-14.46-.311-.607-1.427-2.734-1.65-3.167a53.904 53.904 0 0 1-1.496-3.085C45.535 26.918 45 24.938 45 23c0-4.974 1.07-9.614 3.211-13.894a2 2 0 1 1 3.578 1.788C49.929 14.614 49 18.64 49 23c0 2.321.209 2.797 4.279 10.71C56.496 39.966 58 44.507 58 50c0 8.218-1.369 16.431-4.103 24.632a2 2 0 0 1-3.794-1.264z"/>
</svg>
