<svg xmlns="http://www.w3.org/2000/svg" id="svg30" x="0" y="0" version="1.1" viewBox="0 0 512 640">
 <defs id="defs4"/>
 <path id="path8" fill="#000" fill-opacity="1" fill-rule="nonzero" stroke="none" stroke-dasharray="none" stroke-dashoffset="0" stroke-linecap="round" stroke-linejoin="round" stroke-miterlimit="4" stroke-opacity="1" stroke-width="20" d="M155.92 396.29a10.001 10.001 0 0 0-10 10c0 62.875 51.212 114.047 114.088 114 62.838-.005 113.992-51.162 113.992-114a10.001 10.001 0 0 0-10-10zm10.539 20h187c-4.973 47.303-44.806 84-93.459 84a10.001 10.001 0 0 0-.008 0c-48.681.036-88.558-36.67-93.533-84z" baseline-shift="baseline" clip-rule="nonzero" color="#000" color-interpolation="sRGB" color-interpolation-filters="linearRGB" color-rendering="auto" direction="ltr" display="inline" dominant-baseline="auto" font-family="sans-serif" font-size="medium" font-stretch="normal" font-style="normal" font-variant="normal" font-weight="normal" image-rendering="auto" letter-spacing="normal" opacity="1" overflow="visible" shape-rendering="auto" style="line-height:normal;font-variant-ligatures:normal;font-variant-position:normal;font-variant-caps:normal;font-variant-numeric:normal;font-variant-alternates:normal;font-feature-settings:normal;text-indent:0;text-align:start;text-decoration-line:none;text-decoration-style:solid;text-decoration-color:#000000;text-transform:none;text-orientation:mixed;white-space:normal;shape-padding:0;isolation:auto;mix-blend-mode:normal;solid-color:#000000;solid-opacity:1" text-anchor="start" text-decoration="none" text-rendering="auto" vector-effect="none" visibility="visible" word-spacing="normal" writing-mode="lr-tb"/>
 <path id="path10" fill="#000" fill-opacity="1" fill-rule="nonzero" stroke="none" stroke-dasharray="none" stroke-dashoffset="0" stroke-linecap="round" stroke-linejoin="round" stroke-miterlimit="4" stroke-opacity="1" stroke-width="20" d="M324.01 326.63c-20.25 0-36.88 16.63-36.88 36.88a10.001 10.001 0 1 0 20 0c0-9.441 7.439-16.88 16.88-16.88 9.44 0 16.88 7.439 16.88 16.88a10.001 10.001 0 1 0 20 0c0-20.25-16.63-36.88-36.88-36.88z" baseline-shift="baseline" clip-rule="nonzero" color="#000" color-interpolation="sRGB" color-interpolation-filters="linearRGB" color-rendering="auto" direction="ltr" display="inline" dominant-baseline="auto" font-family="sans-serif" font-size="medium" font-stretch="normal" font-style="normal" font-variant="normal" font-weight="normal" image-rendering="auto" letter-spacing="normal" opacity="1" overflow="visible" shape-rendering="auto" style="line-height:normal;font-variant-ligatures:normal;font-variant-position:normal;font-variant-caps:normal;font-variant-numeric:normal;font-variant-alternates:normal;font-feature-settings:normal;text-indent:0;text-align:start;text-decoration-line:none;text-decoration-style:solid;text-decoration-color:#000000;text-transform:none;text-orientation:mixed;white-space:normal;shape-padding:0;isolation:auto;mix-blend-mode:normal;solid-color:#000000;solid-opacity:1" text-anchor="start" text-decoration="none" text-rendering="auto" vector-effect="none" visibility="visible" word-spacing="normal" writing-mode="lr-tb"/>
 <path id="path12" fill="#000" fill-opacity="1" fill-rule="nonzero" stroke="none" stroke-dasharray="none" stroke-dashoffset="0" stroke-linecap="round" stroke-linejoin="round" stroke-miterlimit="4" stroke-opacity="1" stroke-width="20" d="M197.27 326.63c-20.25 0-36.88 16.63-36.88 36.88a10.001 10.001 0 1 0 20 0c0-9.441 7.439-16.88 16.88-16.88 9.44 0 16.88 7.439 16.88 16.88a10.001 10.001 0 1 0 20 0c0-20.25-16.63-36.88-36.88-36.88z" baseline-shift="baseline" clip-rule="nonzero" color="#000" color-interpolation="sRGB" color-interpolation-filters="linearRGB" color-rendering="auto" direction="ltr" display="inline" dominant-baseline="auto" font-family="sans-serif" font-size="medium" font-stretch="normal" font-style="normal" font-variant="normal" font-weight="normal" image-rendering="auto" letter-spacing="normal" opacity="1" overflow="visible" shape-rendering="auto" style="line-height:normal;font-variant-ligatures:normal;font-variant-position:normal;font-variant-caps:normal;font-variant-numeric:normal;font-variant-alternates:normal;font-feature-settings:normal;text-indent:0;text-align:start;text-decoration-line:none;text-decoration-style:solid;text-decoration-color:#000000;text-transform:none;text-orientation:mixed;white-space:normal;shape-padding:0;isolation:auto;mix-blend-mode:normal;solid-color:#000000;solid-opacity:1" text-anchor="start" text-decoration="none" text-rendering="auto" vector-effect="none" visibility="visible" word-spacing="normal" writing-mode="lr-tb"/>
 <path id="path14" fill="#000" fill-opacity="1" fill-rule="nonzero" stroke="none" stroke-dasharray="none" stroke-dashoffset="0" stroke-linecap="round" stroke-linejoin="round" stroke-miterlimit="4" stroke-opacity="1" stroke-width="20" d="M98.65 303.39c-34.627 0-62.36 29.643-62.36 65.3 0 35.656 27.73 65.31 62.36 65.31.65 0 1.559.009 2.717-.08a10.001 10.001 0 0 0 9.233-9.97V313.44a10.001 10.001 0 0 0-10-10c-.138 0-.787-.05-1.95-.05zm-8.05 20.856v88.897c-19.421-3.98-34.31-22.046-34.31-44.454 0-22.407 14.887-40.465 34.31-44.443z" baseline-shift="baseline" clip-rule="nonzero" color="#000" color-interpolation="sRGB" color-interpolation-filters="linearRGB" color-rendering="auto" direction="ltr" display="inline" dominant-baseline="auto" font-family="sans-serif" font-size="medium" font-stretch="normal" font-style="normal" font-variant="normal" font-weight="normal" image-rendering="auto" letter-spacing="normal" opacity="1" overflow="visible" shape-rendering="auto" style="line-height:normal;font-variant-ligatures:normal;font-variant-position:normal;font-variant-caps:normal;font-variant-numeric:normal;font-variant-alternates:normal;font-feature-settings:normal;text-indent:0;text-align:start;text-decoration-line:none;text-decoration-style:solid;text-decoration-color:#000000;text-transform:none;text-orientation:mixed;white-space:normal;shape-padding:0;isolation:auto;mix-blend-mode:normal;solid-color:#000000;solid-opacity:1" text-anchor="start" text-decoration="none" text-rendering="auto" vector-effect="none" visibility="visible" word-spacing="normal" writing-mode="lr-tb"/>
 <path id="path16" fill="#000" fill-opacity="1" fill-rule="nonzero" stroke="none" stroke-dasharray="none" stroke-dashoffset="0" stroke-linecap="round" stroke-linejoin="round" stroke-miterlimit="4" stroke-opacity="1" stroke-width="20" d="M78.44 355.342a10.001 10.001 0 0 0-1.786 19.85c3.492.67 7.359 4.074 10.242 8.265 2.884 4.19 4.307 8.031 4.307 8.031a10.001 10.001 0 1 0 18.795-6.836s-2.189-6.086-6.625-12.533c-4.436-6.447-11.6-14.39-22.947-16.57a10.001 10.001 0 0 0-1.987-.207z" baseline-shift="baseline" clip-rule="nonzero" color="#000" color-interpolation="sRGB" color-interpolation-filters="linearRGB" color-rendering="auto" direction="ltr" display="inline" dominant-baseline="auto" font-family="sans-serif" font-size="medium" font-stretch="normal" font-style="normal" font-variant="normal" font-weight="normal" image-rendering="auto" letter-spacing="normal" opacity="1" overflow="visible" shape-rendering="auto" style="line-height:normal;font-variant-ligatures:normal;font-variant-position:normal;font-variant-caps:normal;font-variant-numeric:normal;font-variant-alternates:normal;font-feature-settings:normal;text-indent:0;text-align:start;text-decoration-line:none;text-decoration-style:solid;text-decoration-color:#000000;text-transform:none;text-orientation:mixed;white-space:normal;shape-padding:0;isolation:auto;mix-blend-mode:normal;solid-color:#000000;solid-opacity:1" text-anchor="start" text-decoration="none" text-rendering="auto" vector-effect="none" visibility="visible" word-spacing="normal" writing-mode="lr-tb"/>
 <path id="path18" fill="#000" fill-opacity="1" fill-rule="nonzero" stroke="none" stroke-dasharray="none" stroke-dashoffset="0" stroke-linecap="round" stroke-linejoin="round" stroke-miterlimit="4" stroke-opacity="1" stroke-width="20" d="M427.07 303.39c-1.163 0-1.82.05-1.94.05a10.001 10.001 0 0 0-10 10v110.51a10.001 10.001 0 0 0 9.222 9.97c1.164.09 2.068.08 2.718.08 34.638 0 62.36-29.656 62.36-65.31 0-35.657-27.732-65.3-62.36-65.3zm8.06 20.858c19.418 3.982 34.3 22.037 34.3 44.441 0 22.407-14.876 40.469-34.3 44.452z" baseline-shift="baseline" clip-rule="nonzero" color="#000" color-interpolation="sRGB" color-interpolation-filters="linearRGB" color-rendering="auto" direction="ltr" display="inline" dominant-baseline="auto" font-family="sans-serif" font-size="medium" font-stretch="normal" font-style="normal" font-variant="normal" font-weight="normal" image-rendering="auto" letter-spacing="normal" opacity="1" overflow="visible" shape-rendering="auto" style="line-height:normal;font-variant-ligatures:normal;font-variant-position:normal;font-variant-caps:normal;font-variant-numeric:normal;font-variant-alternates:normal;font-feature-settings:normal;text-indent:0;text-align:start;text-decoration-line:none;text-decoration-style:solid;text-decoration-color:#000000;text-transform:none;text-orientation:mixed;white-space:normal;shape-padding:0;isolation:auto;mix-blend-mode:normal;solid-color:#000000;solid-opacity:1" text-anchor="start" text-decoration="none" text-rendering="auto" vector-effect="none" visibility="visible" word-spacing="normal" writing-mode="lr-tb"/>
 <path id="path20" fill="#000" fill-opacity="1" fill-rule="nonzero" stroke="none" stroke-dasharray="none" stroke-dashoffset="0" stroke-linecap="round" stroke-linejoin="round" stroke-miterlimit="4" stroke-opacity="1" stroke-width="20" d="M446.979 355.348a10.001 10.001 0 0 0-1.684.2c-11.348 2.18-18.512 10.127-22.945 16.575-4.434 6.448-6.62 12.533-6.62 12.533a10.001 10.001 0 1 0 18.8 6.828s1.419-3.84 4.3-8.029c2.881-4.19 6.745-7.593 10.236-8.264a10.001 10.001 0 0 0-2.087-19.843z" baseline-shift="baseline" clip-rule="nonzero" color="#000" color-interpolation="sRGB" color-interpolation-filters="linearRGB" color-rendering="auto" direction="ltr" display="inline" dominant-baseline="auto" font-family="sans-serif" font-size="medium" font-stretch="normal" font-style="normal" font-variant="normal" font-weight="normal" image-rendering="auto" letter-spacing="normal" opacity="1" overflow="visible" shape-rendering="auto" style="line-height:normal;font-variant-ligatures:normal;font-variant-position:normal;font-variant-caps:normal;font-variant-numeric:normal;font-variant-alternates:normal;font-feature-settings:normal;text-indent:0;text-align:start;text-decoration-line:none;text-decoration-style:solid;text-decoration-color:#000000;text-transform:none;text-orientation:mixed;white-space:normal;shape-padding:0;isolation:auto;mix-blend-mode:normal;solid-color:#000000;solid-opacity:1" text-anchor="start" text-decoration="none" text-rendering="auto" vector-effect="none" visibility="visible" word-spacing="normal" writing-mode="lr-tb"/>
 <path id="path22" fill="#000" fill-opacity="1" fill-rule="nonzero" stroke="none" stroke-dasharray="none" stroke-dashoffset="0" stroke-linecap="round" stroke-linejoin="round" stroke-miterlimit="4" stroke-opacity="1" stroke-width="20" d="M336.975 229.402a10.001 10.001 0 0 0-9.832 8.875s-1.007 10.631-12.293 19.96A39.747 39.747 0 0 1 289.592 267a10.001 10.001 0 0 0-.092 0H182.06a10.001 10.001 0 0 0-.019 0 136.999 136.999 0 0 1-72.35-20.504 10.001 10.001 0 0 0-15.027 6.35 172.986 172.986 0 0 0-4.064 37.326V414.73C90.595 509.752 167.838 587 262.86 587c95.023 0 172.27-77.246 172.27-172.27V313.22a10.001 10.001 0 0 0-9.396-9.982c-23.861-1.442-45.915-13.048-60.664-31.834l-19.125-36.633a10.001 10.001 0 0 0-8.97-5.369zm.877 33.084 9.994 19.143a10.001 10.001 0 0 0 .949 1.482c16.332 21.155 40.152 35.007 66.336 39.012v92.607c0 84.215-68.057 152.27-152.272 152.27-84.213 0-152.265-68.057-152.26-152.27V290.17a10.001 10.001 0 0 0 0-.002c-.001-6.573.556-13.117 1.397-19.627 21.722 10.786 45.68 16.502 70.065 16.459h107.347a59.77 59.77 0 0 0 38.024-13.211 10.001 10.001 0 0 0 .086-.07 55.562 55.562 0 0 0 10.334-11.233z" baseline-shift="baseline" clip-rule="nonzero" color="#000" color-interpolation="sRGB" color-interpolation-filters="linearRGB" color-rendering="auto" direction="ltr" display="inline" dominant-baseline="auto" font-family="sans-serif" font-size="medium" font-stretch="normal" font-style="normal" font-variant="normal" font-weight="normal" image-rendering="auto" letter-spacing="normal" opacity="1" overflow="visible" shape-rendering="auto" style="line-height:normal;font-variant-ligatures:normal;font-variant-position:normal;font-variant-caps:normal;font-variant-numeric:normal;font-variant-alternates:normal;font-feature-settings:normal;text-indent:0;text-align:start;text-decoration-line:none;text-decoration-style:solid;text-decoration-color:#000000;text-transform:none;text-orientation:mixed;white-space:normal;shape-padding:0;isolation:auto;mix-blend-mode:normal;solid-color:#000000;solid-opacity:1" text-anchor="start" text-decoration="none" text-rendering="auto" vector-effect="none" visibility="visible" word-spacing="normal" writing-mode="lr-tb"/>
 <path id="path24" fill="#000" fill-opacity="1" fill-rule="nonzero" stroke="none" stroke-dasharray="none" stroke-dashoffset="0" stroke-linecap="round" stroke-linejoin="round" stroke-miterlimit="4" stroke-opacity="1" stroke-width="20" d="M34.29 76.38c-5.524.001-10 4.478-10 10v42.86c-.053 34 11.022 67.012 31.33 94.201V325.79c-.001 8.581 10.096 13.178 16.568 7.543a40.43 40.43 0 0 1 26.457-9.941h1.275c4.193 0 7.94-2.617 9.387-6.553l.65-1.772c.406-1.104.613-2.27.613-3.447v-41.81c22.08 11.241 46.545 17.235 71.49 17.191h107.348a59.77 59.77 0 0 0 38.11-13.281 55.562 55.562 0 0 0 10.334-11.233l9.994 19.143c.272.521.59 1.017.949 1.482 19.152 24.801 48.512 39.467 79.76 40.139.516.13 1.042.22 1.572.268a40.833 40.833 0 0 1 24.902 11.15c6.366 6.066 16.9 1.555 16.9-7.238V198.66c0-38.69-31.577-70.267-70.265-70.27a74.207 74.207 0 0 0-31.805 7.1c-20.185-36.199-58.533-59.11-100.539-59.11Z" baseline-shift="baseline" clip-rule="nonzero" color="#000" color-interpolation="sRGB" color-interpolation-filters="linearRGB" color-rendering="auto" direction="ltr" display="inline" dominant-baseline="auto" font-family="sans-serif" font-size="medium" font-stretch="normal" font-style="normal" font-variant="normal" font-weight="normal" image-rendering="auto" letter-spacing="normal" opacity="1" overflow="visible" shape-rendering="auto" style="line-height:normal;font-variant-ligatures:normal;font-variant-position:normal;font-variant-caps:normal;font-variant-numeric:normal;font-variant-alternates:normal;font-feature-settings:normal;text-indent:0;text-align:start;text-decoration-line:none;text-decoration-style:solid;text-decoration-color:#000000;text-transform:none;text-orientation:mixed;white-space:normal;shape-padding:0;isolation:auto;mix-blend-mode:normal;solid-color:#000000;solid-opacity:1" text-anchor="start" text-decoration="none" text-rendering="auto" vector-effect="none" visibility="visible" word-spacing="normal" writing-mode="lr-tb"/>
</svg>
