<svg xmlns="http://www.w3.org/2000/svg" xml:space="preserve" viewBox="0 0 23.963 38.725">
 <path d="M.367 7.98h23.245c.173 0 .32-.095.347-.276.025-.182-.079-.322-.244-.376l-4.013-1.332c-2.013-.65-4.105-1.016-6.21-1.016h-3.005c-2.104 0-4.198.361-6.211 1.012L.265 7.313a.348.348 0 0 0-.244.388c.026.182.172.279.346.279ZM14 3.989A1.998 1.998 0 0 0 12 2c-1.099 0-2 .891-2 1.989V3.98h4zM23.596 9.98H.351c-.173 0-.32.169-.347.352-.025.184.079.376.245.429l4.012 1.278a19.55 19.55 0 0 0 4.687.904c.06.836.052 1.573 1.052 2.082v8.993l-7.529 7.255a.999.999 0 0 0 .003 1.414.994.994 0 0 0 1.41 0L10 26.837V29a2 2 0 0 0 4 0v-2.18l6.143 5.867a.999.999 0 1 0 1.413-1.414L14 24.002v-8.971c1-.505.979-1.308 1.035-2.094 1.602-.109 3.11-.39 4.648-.89l4.013-1.27c.167-.054.271-.263.245-.446-.025-.182-.171-.351-.345-.351Z"/>
</svg>
