<?xml version="1.0" encoding="UTF-8" standalone="no"?>
<!-- Created with Inkscape (http://www.inkscape.org/) -->

<svg
   xmlns:dc="http://purl.org/dc/elements/1.1/"
   xmlns:cc="http://creativecommons.org/ns#"
   xmlns:rdf="http://www.w3.org/1999/02/22-rdf-syntax-ns#"
   xmlns:svg="http://www.w3.org/2000/svg"
   xmlns="http://www.w3.org/2000/svg"
   xmlns:sodipodi="http://sodipodi.sourceforge.net/DTD/sodipodi-0.dtd"
   xmlns:inkscape="http://www.inkscape.org/namespaces/inkscape"
   width="960"
   height="326"
   viewBox="0 0 253.99999 86.254169"
   version="1.1"
   id="svg8"
   inkscape:version="0.92.5 (2060ec1f9f, 2020-04-08)"
   sodipodi:docname="mountains.svg">
  <defs
     id="defs2" />
  <sodipodi:namedview
     id="base"
     pagecolor="#ffffff"
     bordercolor="#666666"
     borderopacity="1.0"
     inkscape:pageopacity="0.0"
     inkscape:pageshadow="2"
     inkscape:zoom="0.98994949"
     inkscape:cx="415.23687"
     inkscape:cy="7.019279"
     inkscape:document-units="mm"
     inkscape:current-layer="layer1"
     showgrid="false"
     inkscape:window-width="1719"
     inkscape:window-height="1385"
     inkscape:window-x="1719"
     inkscape:window-y="0"
     inkscape:window-maximized="0"
     units="px"
     inkscape:snap-bbox="true"
     showguides="true"
     inkscape:guide-bbox="true"
     inkscape:snap-global="true">
    <sodipodi:guide
       position="254.03968,43.798794"
       orientation="0,1"
       id="guide875"
       inkscape:locked="false" />
    <sodipodi:guide
       position="163.81091,62.518258"
       orientation="0,1"
       id="guide885"
       inkscape:locked="false" />
  </sodipodi:namedview>
  <metadata
     id="metadata5">
    <rdf:RDF>
      <cc:Work
         rdf:about="">
        <dc:format>image/svg+xml</dc:format>
        <dc:type
           rdf:resource="http://purl.org/dc/dcmitype/StillImage" />
        <dc:title />
      </cc:Work>
    </rdf:RDF>
  </metadata>
  <g
     inkscape:label="Layer 1"
     inkscape:groupmode="layer"
     id="layer1"
     transform="translate(0,-210.74582)">
    <path
       style="fill:#16161d;fill-opacity:1;stroke:none;stroke-width:0.07227241px;stroke-linecap:butt;stroke-linejoin:miter;stroke-opacity:1"
       d="m 0.04480794,269.0762 c 2.50833046,1.5769 5.96033666,4.08183 7.65945716,2.38271 0.7115738,-0.71158 2.5419739,-0.10289 3.5042969,-0.58405 0.66369,-0.33185 0.393196,-1.26927 0.876069,-1.75215 0.973417,-0.97341 3.114929,-0.77872 4.088342,-1.75215 0.632525,-0.63251 2.433595,1.84954 2.628222,2.04417 0.22536,0.22537 0.804029,-0.80403 0.876075,-0.87607 0.340698,-0.34069 1.119427,-0.24336 1.460126,-0.58404 1.170748,-1.17076 3.869359,0.94911 4.088342,1.16809 0.552579,0.55258 2.691172,-0.58405 3.504297,-0.58405 1.243958,0 8.384606,1.83626 9.052762,1.1681 2.173666,-2.17366 8.695396,0.35736 9.636816,-0.58405 0.365657,-0.36567 9.480447,-3.07661 9.636805,-2.92025 0.876075,0.87608 2.336199,1.1681 3.212274,2.04418 0.486707,0.4867 0.681391,1.26544 1.168098,1.75215 0.632721,0.63271 2.287525,0.24334 2.920246,0.87607 0.757022,0.75703 2.768177,0.15207 3.212267,-0.29203 0.730061,-0.73005 -0.146013,-3.06625 0.584052,-3.79632 0.586951,-0.58695 2.133735,-1.1681 3.212268,-1.1681 0.228658,0 1.314416,-0.14571 1.460127,0 0.827399,0.82741 3.844989,-0.53537 4.672394,0.29203 0.53537,0.53538 1.800818,0.34069 2.336186,0.87607 2.09567,2.09568 3.913481,0.29203 6.716573,0.29203 0.891233,0 1.05426,2.15801 2.920246,0.29202 0.355629,-0.35563 3.198621,-0.0273 3.50429,0.58406 0.03214,0.0643 2.810846,0.10939 2.920248,0 0.632719,-0.63273 1.411448,-1.11944 2.044177,-1.75216 0.813066,-0.81306 13.979906,5.29372 14.893256,4.38037 0.8274,-0.82739 3.26094,-0.0487 4.08834,-0.87607 0.61133,-0.61133 7.24851,-4.72451 7.30062,-4.67239 0.92475,0.92474 1.70348,1.9955 2.62823,2.92025 0.99598,0.99598 8.1163,-0.64442 10.22083,1.46011 1.02209,1.02209 5.11043,-1.02208 6.13252,0 1.5088,1.50879 5.20777,0.8274 6.71657,2.3362 0.68582,0.68582 1.89828,-1.31423 2.04418,-1.46012 0.87607,-0.87608 2.62822,-0.87608 3.50429,-1.75215 1.17513,-1.17512 6.64415,2.70063 7.30062,2.04417 0.68138,-0.68138 1.07076,-1.6548 1.75214,-2.33619 0.47274,-0.47274 2.4695,-0.29202 3.21227,-0.29202 0.34077,0 3.46454,0.91583 4.08836,0.29202 1.2984,-1.2984 6.31357,-1.27906 7.59263,0 0.84889,0.84891 5.87793,-1.13064 7.59262,0.58405 0.385,0.38499 3.19136,0 3.79633,0 1.06532,0 2.33824,-0.87813 2.92024,-1.46013 0.53538,-0.53538 2.67689,0.53539 3.21228,0 0.90231,-0.90232 6.72887,-1.18039 7.88466,-2.33619 1.5,-1.49999 6.78693,1.8225 7.00859,2.04417 1.05631,1.05629 7.7995,-0.49888 8.1767,-0.87608 0.58405,-0.58405 2.04417,-0.29202 2.62822,-0.87607 0.12147,-0.12146 0.44125,-2.47899 1.46012,-1.46012 1.55746,1.55746 4.28304,1.94682 5.8405,3.50429 0.53537,0.53539 2.67687,-0.53538 3.21225,0 0.15808,0.15809 2.00836,1.78796 2.92024,0.87608 0.30418,-0.30419 4.52555,-2.77508 5.8405,-1.46013 0.29202,0.29203 0.29202,0.87608 0.58404,1.16811 1.49902,1.49901 4.87736,-1.83922 6.13252,-0.58406 1.37657,1.37658 2.68526,1.70564 5.41515,1.70564 l 7.14192,69.84041 H -4.121708 Z"
       id="path8948"
       inkscape:connector-curvature="0"
       sodipodi:nodetypes="cccccccccsccccccccscccssccccccsscsccccscccsscccscscccccccccc" />
  </g>
</svg>
