<?xml version="1.0" encoding="UTF-8" standalone="no"?>
<!-- Created with Inkscape (http://www.inkscape.org/) -->

<svg
   xmlns:dc="http://purl.org/dc/elements/1.1/"
   xmlns:cc="http://creativecommons.org/ns#"
   xmlns:rdf="http://www.w3.org/1999/02/22-rdf-syntax-ns#"
   xmlns:svg="http://www.w3.org/2000/svg"
   xmlns="http://www.w3.org/2000/svg"
   xmlns:sodipodi="http://sodipodi.sourceforge.net/DTD/sodipodi-0.dtd"
   xmlns:inkscape="http://www.inkscape.org/namespaces/inkscape"
   width="1100"
   height="1100"
   viewBox="0 0 291.04166 291.04167"
   version="1.1"
   id="svg8"
   inkscape:version="0.92.5 (2060ec1f9f, 2020-04-08)"
   sodipodi:docname="dragon.svg">
  <defs
     id="defs2" />
  <sodipodi:namedview
     id="base"
     pagecolor="#ffffff"
     bordercolor="#666666"
     borderopacity="1.0"
     inkscape:pageopacity="0.0"
     inkscape:pageshadow="2"
     inkscape:zoom="0.49497475"
     inkscape:cx="648.23053"
     inkscape:cy="266.01691"
     inkscape:document-units="mm"
     inkscape:current-layer="layer1"
     showgrid="false"
     units="px"
     inkscape:window-width="1700"
     inkscape:window-height="1135"
     inkscape:window-x="1631"
     inkscape:window-y="103"
     inkscape:window-maximized="0" />
  <metadata
     id="metadata5">
    <rdf:RDF>
      <cc:Work
         rdf:about="">
        <dc:format>image/svg+xml</dc:format>
        <dc:type
           rdf:resource="http://purl.org/dc/dcmitype/StillImage" />
        <dc:title></dc:title>
      </cc:Work>
    </rdf:RDF>
  </metadata>
  <g
     inkscape:label="Layer 1"
     inkscape:groupmode="layer"
     id="layer1"
     transform="translate(0,-5.9583165)">
    <path
       style="fill:#092027;fill-opacity:1;stroke-width:0.27008888"
       d="M 138.174,6.6616443 C 129.6092,7.6495072 125.74653,32.257523 119.72302,38.478329 114.74946,42.27844 96.671424,21.729041 89.579088,20.976356 81.773857,23.259598 90.931983,47.45741 82.629045,53.765782 65.390042,49.360529 48.752128,37.610841 45.002284,39.495381 c -3.749844,1.884543 9.577117,25.132894 6.581834,37.424194 -9.783077,5.7042 -22.611265,-7.852089 -37.905816,-3.816059 0.611542,15.51203 14.799867,27.351824 16.745512,41.298814 -0.539289,6.26333 -24.6325638,3.2362 -28.0892476,11.07047 2.2546107,12.14329 23.6291606,13.09973 28.0523206,29.78205 -10.331651,9.61933 -18.998438,17.24267 -28.7491711,31.17206 -1.45460434,8.26346 22.6222961,3.75014 28.5160091,10.1067 -1.094625,17.54102 -12.603132,25.80096 -13.940703,41.74562 2.656603,4.98047 30.024267,-7.64637 37.291787,-6.25583 5.508386,1.81934 -6.582522,31.13993 -3.280102,38.44495 5.041338,4.9593 27.474448,-16.29668 35.898613,-17.10159 5.853782,-2.04986 3.247233,25.73571 9.45575,32.02452 10.58495,-0.82731 17.72611,-16.27061 27.72738,-19.4348 4.13841,-1.68877 14.88349,25.87866 20.95035,29.97618 1.05925,0.67891 1.03834,0.68222 2.18181,-0.32179 6.61292,-6.07803 9.52854,-16.06734 15.44888,-22.71332 2.07466,-1.85809 19.34756,18.72017 23.46451,19.24805 6.40425,-0.68161 6.93394,-19.36113 12.23839,-23.61483 5.02242,-4.81178 18.26613,11.98932 27.73106,12.14291 5.62377,-8.33092 -0.77175,-17.44145 4.98822,-25.81089 6.75786,-3.20031 12.67561,6.25966 20.25982,5.38491 4.08789,-10.018 -3.32376,-20.24269 0.73325,-29.66652 3.78907,-4.65579 13.95301,6.20137 17.06942,-1.46493 -0.0795,-7.26628 -5.54419,-13.92103 -3.20626,-20.45501 1.75127,-3.18223 8.52238,-2.36365 13.90482,-3.49533 3.66959,-2.25304 -4.9999,-16.23824 -5.38489,-21.86613 5.99144,-5.00443 13.03608,-9.32549 15.94,-17.62699 -0.88308,-5.24304 -9.41688,-13.00172 -13.55614,-17.43709 5.78641,-5.94118 10.1527,-9.91025 13.81305,-17.9224 0.56661,-6.54708 -13.46469,-13.24821 -17.72883,-17.70665 3.24509,-5.04412 11.12272,-15.6097 9.95111,-21.323304 -6.16671,-4.498539 -13.35648,-0.07951 -19.51604,-4.306124 -1.8477,-5.974875 6.05853,-15.29127 2.38543,-23.778374 -2.47563,-2.447275 -11.01425,2.958557 -16.06079,2.065759 -6.87643,-4.535425 0.48302,-23.185601 -3.08809,-29.964045 -3.51291,-3.116655 -14.9422,11.580278 -20.49563,6.13503 -5.39092,-7.516641 -2.04416,-18.031276 -6.41356,-24.861896 -7.40659,-3.203332 -17.42471,14.132768 -25.59198,14.666039 C 185.17653,29.619972 188.64014,10.886911 177.85755,8.4356848 169.21014,13.435695 164.87216,23.169276 157.49696,28.921824 155.20318,30.403711 143.51173,9.9363856 138.174,6.6616443 Z m 30.51794,74.9902917 a 69.954041,65.047459 0 0 1 69.95408,65.047644 69.954041,65.047459 0 0 1 -69.95408,65.04711 69.954041,65.047459 0 0 1 -69.954098,-65.04711 69.954041,65.047459 0 0 1 69.954098,-65.047644 z"
       id="path826"
       inkscape:connector-curvature="0" />
    <path
       style="opacity:1;fill:#0b2933;fill-opacity:1;stroke:none;stroke-width:0.75488502;stroke-miterlimit:4;stroke-dasharray:none;stroke-opacity:1"
       d="M 155.41907,41.910357 A 116.255,110.57672 0 0 0 39.163723,152.48697 116.255,110.57672 0 0 0 155.41907,263.06358 116.255,110.57672 0 0 0 271.67389,152.48697 116.255,110.57672 0 0 0 155.41907,41.910357 Z m 13.27287,39.741579 a 69.954041,65.047459 0 0 1 69.95408,65.047644 69.954041,65.047459 0 0 1 -69.95408,65.04711 69.954041,65.047459 0 0 1 -69.954098,-65.04711 69.954041,65.047459 0 0 1 69.954098,-65.047644 z"
       id="path828"
       inkscape:connector-curvature="0" />
    <path
       style="opacity:1;fill:#051c21;fill-opacity:1;stroke:none;stroke-width:0.53926277;stroke-miterlimit:4;stroke-dasharray:none;stroke-opacity:1"
       d="m 165.45087,73.549269 a 82.300963,79.709424 0 0 0 -82.301164,79.709461 82.300963,79.709424 0 0 0 82.301164,79.70946 82.300963,79.709424 0 0 0 82.30062,-79.70946 82.300963,79.709424 0 0 0 -82.30062,-79.709461 z m 3.24107,8.102667 a 69.954041,65.047456 0 0 1 69.95408,65.047644 69.954041,65.047456 0 0 1 -69.95408,65.04711 69.954041,65.047456 0 0 1 -69.954098,-65.04711 69.954041,65.047456 0 0 1 69.954098,-65.047644 z"
       id="ellipse830"
       inkscape:connector-curvature="0" />
    <ellipse
       style="opacity:1;fill:#000000;fill-opacity:0;stroke:none;stroke-width:0.46482992;stroke-miterlimit:4;stroke-dasharray:none;stroke-opacity:1"
       id="ellipse832"
       cx="170.46658"
       cy="158.27466"
       rx="69.568192"
       ry="70.063385" />
  </g>
</svg>
