<?xml version="1.0" encoding="UTF-8" standalone="no"?>
<svg xmlns="http://www.w3.org/2000/svg" width="500" height="500" viewBox="0 0 500 500" version="1.1">
   <g opacity="0.5" fill="#fff">
      <rect width="3" height="3" x="007" y="011" />
      <rect width="3" height="3" x="016" y="156" />
      <rect width="3" height="3" x="024" y="058" />
      <rect width="3" height="3" x="026" y="283" />
      <rect width="3" height="3" x="028" y="219" />
      <rect width="3" height="3" x="036" y="461" />
      <rect width="3" height="3" x="037" y="272" />
      <rect width="3" height="3" x="038" y="391" />
      <rect width="3" height="3" x="039" y="473" />
      <rect width="3" height="3" x="041" y="096" />
      <rect width="3" height="3" x="056" y="329" />
      <rect width="3" height="3" x="059" y="036" />
      <rect width="3" height="3" x="064" y="191" />
      <rect width="3" height="3" x="069" y="112" />
      <rect width="3" height="3" x="077" y="115" />
      <rect width="3" height="3" x="079" y="204" />
      <rect width="3" height="3" x="083" y="272" />
      <rect width="3" height="3" x="087" y="448" />
      <rect width="3" height="3" x="094" y="231" />
      <rect width="3" height="3" x="094" y="356" />

      <rect width="3" height="3" x="103" y="023" />
      <rect width="3" height="3" x="108" y="149" />
      <rect width="3" height="3" x="109" y="411" />
      <rect width="3" height="3" x="109" y="055" />
      <rect width="3" height="3" x="112" y="352" />
      <rect width="3" height="3" x="113" y="099" />
      <rect width="3" height="3" x="116" y="320" />
      <rect width="3" height="3" x="125" y="247" />
      <rect width="3" height="3" x="129" y="460" />
      <rect width="3" height="3" x="135" y="476" />
      <rect width="3" height="3" x="142" y="199" />
      <rect width="3" height="3" x="149" y="141" />
      <rect width="3" height="3" x="159" y="331" />
      <rect width="3" height="3" x="162" y="361" />
      <rect width="3" height="3" x="164" y="075" />
      <rect width="3" height="3" x="165" y="027" />
      <rect width="3" height="3" x="167" y="290" />
      <rect width="3" height="3" x="168" y="427" />
      <rect width="3" height="3" x="179" y="070" />
      <rect width="3" height="3" x="183" y="248" />
      <rect width="3" height="3" x="186" y="207" />
      <rect width="3" height="3" x="199" y="319" />
      <rect width="3" height="3" x="199" y="444" />

      <rect width="3" height="3" x="202" y="105" />
      <rect width="3" height="3" x="210" y="406" />
      <rect width="3" height="3" x="217" y="195" />
      <rect width="3" height="3" x="219" y="370" />
      <rect width="3" height="3" x="224" y="253" />
      <rect width="3" height="3" x="224" y="032" />
      <rect width="3" height="3" x="230" y="144" />
      <rect width="3" height="3" x="232" y="479" />
      <rect width="3" height="3" x="240" y="430" />
      <rect width="3" height="3" x="246" y="306" />
      <rect width="3" height="3" x="249" y="111" />
      <rect width="3" height="3" x="251" y="344" />
      <rect width="3" height="3" x="268" y="215" />
      <rect width="3" height="3" x="275" y="379" />
      <rect width="3" height="3" x="283" y="259" />
      <rect width="3" height="3" x="286" y="074" />
      <rect width="3" height="3" x="290" y="422" />
      <rect width="3" height="3" x="296" y="017" />

      <rect width="3" height="3" x="304" y="269" />
      <rect width="3" height="3" x="305" y="476" />
      <rect width="3" height="3" x="312" y="293" />
      <rect width="3" height="3" x="314" y="367" />
      <rect width="3" height="3" x="314" y="137" />
      <rect width="3" height="3" x="319" y="202" />
      <rect width="3" height="3" x="321" y="440" />
      <rect width="3" height="3" x="334" y="329" />
      <rect width="3" height="3" x="340" y="101" />
      <rect width="3" height="3" x="347" y="280" />
      <rect width="3" height="3" x="348" y="417" />
      <rect width="3" height="3" x="363" y="384" />
      <rect width="3" height="3" x="363" y="032" />
      <rect width="3" height="3" x="366" y="190" />
      <rect width="3" height="3" x="370" y="233" />
      <rect width="3" height="3" x="374" y="480" />
      <rect width="3" height="3" x="375" y="373" />

      <rect width="3" height="3" x="402" y="124" />
      <rect width="3" height="3" x="402" y="444" />
      <rect width="3" height="3" x="402" y="078" />
      <rect width="3" height="3" x="404" y="315" />
      <rect width="3" height="3" x="409" y="398" />
      <rect width="3" height="3" x="411" y="343" />
      <rect width="3" height="3" x="413" y="220" />
      <rect width="3" height="3" x="418" y="402" />
      <rect width="3" height="3" x="427" y="160" />
      <rect width="3" height="3" x="427" y="051" />
      <rect width="3" height="3" x="430" y="263" />
      <rect width="3" height="3" x="432" y="210" />
      <rect width="3" height="3" x="435" y="247" />
      <rect width="3" height="3" x="436" y="472" />
      <rect width="3" height="3" x="436" y="021" />
      <rect width="3" height="3" x="447" y="019" />
      <rect width="3" height="3" x="450" y="362" />
      <rect width="3" height="3" x="452" y="273" />
      <rect width="3" height="3" x="453" y="441" />
      <rect width="3" height="3" x="457" y="197" />
      <rect width="3" height="3" x="464" y="132" />
      <rect width="3" height="3" x="471" y="414" />
      <rect width="3" height="3" x="472" y="302" />
      <rect width="3" height="3" x="480" y="070" />
      <rect width="3" height="3" x="482" y="480" />
      <rect width="3" height="3" x="483" y="014" />
      <rect width="3" height="3" x="491" y="023" />
   </g>
</svg>
