<?xml version="1.0" encoding="UTF-8" standalone="no"?>
<svg
   width="350"
   height="80"
   viewBox="0 0 92.604167 21.166667"
   version="1.1"
   id="svg26"
   sodipodi:docname="nano.svg"
   inkscape:version="1.1.2 (0a00cf5339, 2022-02-04)"
   xmlns:inkscape="http://www.inkscape.org/namespaces/inkscape"
   xmlns:sodipodi="http://sodipodi.sourceforge.net/DTD/sodipodi-0.dtd"
   xmlns="http://www.w3.org/2000/svg"
   xmlns:svg="http://www.w3.org/2000/svg">
  <defs
     id="defs30" />
  <sodipodi:namedview
     id="namedview28"
     pagecolor="#ffffff"
     bordercolor="#000000"
     borderopacity="0.25"
     inkscape:pageshadow="2"
     inkscape:pageopacity="0.0"
     inkscape:pagecheckerboard="0"
     showgrid="false"
     inkscape:zoom="1.6946993"
     inkscape:cx="198.26527"
     inkscape:cy="15.636993"
     inkscape:window-width="1326"
     inkscape:window-height="848"
     inkscape:window-x="0"
     inkscape:window-y="0"
     inkscape:window-maximized="1"
     inkscape:current-layer="svg26" />
  <g
     transform="matrix(0.12050859,0,0,0.12050859,-0.2870007,-15.642499)"
     id="g24">
    <circle
       cx="133.132"
       cy="241.722"
       r="10.831"
       fill="#299f42"
       id="circle2" />
    <circle
       cx="55.395"
       cy="163.83701"
       r="10.831"
       fill="#299f42"
       id="circle4" />
    <circle
       cx="55.308998"
       cy="241.722"
       r="10.831"
       fill="#299f42"
       id="circle6" />
    <path
       fill="none"
       stroke="#539f29"
       stroke-linejoin="round"
       stroke-width="10.583"
       d="m 29.368,189.84 25.94,-25.942 v 77.824 l -25.94,25.94 z"
       id="path8" />
    <path
       fill="none"
       stroke="#66bf31"
       stroke-linejoin="round"
       stroke-width="10.583"
       d="m 55.309,163.898 77.823,77.824 -25.94,25.94 -77.824,-77.823 z"
       id="path10" />
    <circle
       cx="29.368"
       cy="189.84"
       r="10.831"
       fill="#299f42"
       id="circle12" />
    <circle
       cx="133.132"
       cy="163.89799"
       r="10.831"
       fill="#299f42"
       id="circle14" />
    <circle
       cx="29.368"
       cy="267.66299"
       r="10.831"
       fill="#299f42"
       id="circle16" />
    <path
       fill="none"
       stroke="#78d048"
       stroke-linejoin="round"
       stroke-width="10.583"
       d="m 133.132,163.898 v 77.824 l -25.94,25.94 V 189.84 Z"
       id="path18" />
    <circle
       cx="107.191"
       cy="189.84"
       r="10.831"
       fill="#299f42"
       id="circle20" />
    <circle
       cx="107.191"
       cy="267.66299"
       r="10.831"
       fill="#299f42"
       id="circle22" />
  </g>
  <path
     id="path3022"
     style="font-weight:bold;font-size:11.56px;line-height:1.25;font-family:Montserrat;-inkscape-font-specification:'Montserrat Bold';letter-spacing:0px;word-spacing:0px;fill:#97da6f;stroke-width:1.09229"
     d="M 78.597656 24.427734 L 78.597656 55.011719 L 85.587891 55.011719 L 85.587891 36.449219 L 100.83594 55.011719 L 106.64844 55.011719 L 106.64844 24.427734 L 99.65625 24.427734 L 99.65625 42.982422 L 84.453125 24.427734 L 78.597656 24.427734 z "
     transform="scale(0.26458334)" />
  <path
     id="path3024"
     style="font-weight:bold;font-size:11.56px;line-height:1.25;font-family:Montserrat;-inkscape-font-specification:'Montserrat Bold';letter-spacing:0px;word-spacing:0px;fill:#97da6f;stroke-width:1.09229"
     d="M 123.51172 24.427734 L 109.88086 55.011719 L 117.13281 55.011719 L 119.85742 48.458984 L 134.03516 48.458984 L 136.75 55.011719 L 144.17773 55.011719 L 130.50391 24.427734 L 123.51172 24.427734 z M 126.96094 31.378906 L 131.80859 43.083984 L 122.09375 43.083984 L 126.96094 31.378906 z "
     transform="scale(0.26458334)" />
  <path
     id="path3026"
     style="font-weight:bold;font-size:11.56px;line-height:1.25;font-family:Montserrat;-inkscape-font-specification:'Montserrat Bold';letter-spacing:0px;word-spacing:0px;fill:#97da6f;stroke-width:1.09229"
     d="M 147.36719 24.427734 L 147.36719 55.011719 L 154.35938 55.011719 L 154.35938 36.449219 L 169.60742 55.011719 L 175.41797 55.011719 L 175.41797 24.427734 L 168.42773 24.427734 L 168.42773 42.984375 L 153.22266 24.427734 L 147.36719 24.427734 z "
     transform="scale(0.26458334)" />
  <path
     d="m 52.261954,14.694139 q -0.95948,0 -1.78024,-0.31212 -0.8092,-0.31212 -1.41032,-0.87856 -0.58956,-0.56644 -0.9248,-1.3294 -0.32368,-0.76296 -0.32368,-1.66464 0,-0.9016802 0.32368,-1.6646402 0.33524,-0.7629601 0.93636,-1.3294001 0.60112,-0.56644 1.41032,-0.87856 0.8092,-0.31212 1.75712,-0.31212 0.95948,0 1.75712,0.31212 0.8092,0.31212 1.39876,0.87856 0.60112,0.56644 0.93636,1.3294001 0.33524,0.7514 0.33524,1.6646402 0,0.90168 -0.33524,1.6762 -0.33524,0.76296 -0.93636,1.3294 -0.58956,0.55488 -1.39876,0.867 -0.79764,0.31212 -1.74556,0.31212 z m -0.01156,-1.59528 q 0.54332,0 0.99416,-0.18496 0.4624,-0.18496 0.8092,-0.53176 0.3468,-0.3468 0.53176,-0.82076 0.19652,-0.47396 0.19652,-1.05196 0,-0.5780002 -0.19652,-1.0519602 -0.18496,-0.47396 -0.53176,-0.82076 -0.33524,-0.3468001 -0.79764,-0.5317601 -0.4624,-0.18496 -1.00572,-0.18496 -0.54332,0 -1.00572,0.18496 -0.45084,0.18496 -0.79764,0.5317601 -0.3468,0.3468 -0.54332,0.82076 -0.18496,0.47396 -0.18496,1.0519602 0,0.56644 0.18496,1.05196 0.19652,0.47396 0.53176,0.82076 0.3468,0.3468 0.8092,0.53176 0.4624,0.18496 1.00572,0.18496 z"
     style="font-weight:bold;font-size:11.56px;line-height:1.25;font-family:Montserrat;-inkscape-font-specification:'Montserrat Bold';letter-spacing:0px;word-spacing:0px;fill:#97da6f;stroke-width:0.289001"
     id="path3028" />
  <path
     id="path3030"
     style="font-weight:bold;font-size:11.56px;line-height:1.25;font-family:Montserrat;-inkscape-font-specification:'Montserrat Bold';letter-spacing:0px;word-spacing:0px;fill:#97da6f;stroke-width:1.09229"
     d="M 246.80859 23.904297 C 244.36188 23.904297 242.11901 24.29754 240.08008 25.083984 C 238.04115 25.841301 236.26463 26.934078 234.75 28.361328 C 233.23537 29.788579 232.05564 31.462346 231.21094 33.384766 C 230.39537 35.307185 229.98828 37.419625 229.98828 39.720703 C 229.98828 42.02178 230.39537 44.134222 231.21094 46.056641 C 232.05564 47.97906 233.22153 49.652828 234.70703 51.080078 C 236.22166 52.507329 237.98434 53.613947 239.99414 54.400391 C 242.03307 55.157707 244.26015 55.537109 246.67773 55.537109 C 248.8623 55.537109 251.04785 55.201184 253.23242 54.53125 C 255.44612 53.861316 257.3827 52.900923 259.04297 51.648438 L 259.04297 39.240234 L 252.57617 39.240234 L 252.57617 48.222656 C 252.10119 48.472519 251.62127 48.682344 251.13477 48.851562 C 249.82403 49.288476 248.47039 49.507813 247.07227 49.507812 C 245.61589 49.507813 244.27609 49.274635 243.05273 48.808594 C 241.8585 48.342553 240.8092 47.672655 239.90625 46.798828 C 239.03242 45.895874 238.34868 44.846574 237.85352 43.652344 C 237.38747 42.458114 237.1543 41.147954 237.1543 39.720703 C 237.1543 38.264325 237.38747 36.938371 237.85352 35.744141 C 238.34868 34.549911 239.03242 33.516405 239.90625 32.642578 C 240.8092 31.768751 241.87235 31.098853 243.0957 30.632812 C 244.31906 30.166772 245.6727 29.933594 247.1582 29.933594 C 248.70196 29.933594 250.13067 30.224089 251.44141 30.806641 C 252.75215 31.360064 253.95956 32.219663 255.06641 33.384766 L 259.61133 29.191406 C 258.12582 27.47288 256.29004 26.16272 254.10547 25.259766 C 251.95003 24.356811 249.51746 23.904297 246.80859 23.904297 z "
     transform="scale(0.26458334)" />
  <path
     id="path3032"
     style="font-weight:bold;font-size:11.56px;line-height:1.25;font-family:Montserrat;-inkscape-font-specification:'Montserrat Bold';letter-spacing:0px;word-spacing:0px;fill:#97da6f;stroke-width:1.09229"
     d="M 265.5957 24.427734 L 265.5957 55.011719 L 272.67383 55.011719 L 272.67383 46.492188 L 278.83594 46.492188 C 278.94782 46.492188 279.05735 46.491694 279.16797 46.490234 L 285.03906 55.011719 L 292.68555 55.011719 L 285.85156 45.207031 C 285.87161 45.19831 285.89214 45.190451 285.91211 45.181641 C 287.89278 44.307814 289.42228 43.054971 290.5 41.423828 C 291.57772 39.763557 292.11719 37.797341 292.11719 35.525391 C 292.11719 33.224313 291.57772 31.244255 290.5 29.583984 C 289.42228 27.923714 287.89278 26.65703 285.91211 25.783203 C 283.93144 24.880249 281.57393 24.427734 278.83594 24.427734 L 265.5957 24.427734 z M 272.67383 30.195312 L 278.44141 30.195312 C 280.62597 30.195312 282.25822 30.661668 283.33594 31.59375 C 284.41366 32.525832 284.95117 33.835992 284.95117 35.525391 C 284.95117 37.185662 284.41366 38.497775 283.33594 39.458984 C 282.25822 40.391066 280.62597 40.857422 278.44141 40.857422 L 272.67383 40.857422 L 272.67383 30.195312 z "
     transform="scale(0.26458334)" />
  <path
     d="M 78.769005,14.555419 V 6.4634187 h 1.87272 v 8.0920003 z"
     style="font-weight:bold;font-size:11.56px;line-height:1.25;font-family:Montserrat;-inkscape-font-specification:'Montserrat Bold';letter-spacing:0px;word-spacing:0px;fill:#97da6f;stroke-width:0.289001"
     id="path3034" />
  <path
     d="M 82.560676,14.555419 V 6.4634187 h 3.67608 q 1.317841,0 2.323561,0.50864 1.00572,0.49708 1.57216,1.39876 0.56644,0.9016801 0.56644,2.1386003 0,1.22536 -0.56644,2.1386 -0.56644,0.90168 -1.57216,1.41032 -1.00572,0.49708 -2.323561,0.49708 z m 1.87272,-1.53748 h 1.71088 q 0.8092,0 1.398761,-0.30056 0.60112,-0.31212 0.9248,-0.87856 0.33524,-0.56644 0.33524,-1.3294 0,-0.7745202 -0.33524,-1.3294002 -0.32368,-0.56644 -0.9248,-0.8670001 -0.589561,-0.31212 -1.398761,-0.31212 h -1.71088 z"
     style="font-weight:bold;font-size:11.56px;line-height:1.25;font-family:Montserrat;-inkscape-font-specification:'Montserrat Bold';letter-spacing:0px;word-spacing:0px;fill:#97da6f;stroke-width:0.289001"
     id="path3036" />
</svg>
