<svg xmlns="http://www.w3.org/2000/svg" viewBox="0 0 128.975 36" fill="#fff">
<path d="M24,0H8C3.582,0,0,3.582,0,8v20c0,4.419,3.582,8,8,8h16c1.711,0,2.493-1.342,3.794-2.257
	c-4.396-0.787-7.732-2.587-7.732-9.493c0-7.684,5.012-8.998,10.204-8.998c0.592,0,1.172,0.055,1.734,0.16V8C32,3.582,28.418,0,24,0z
	 M21.561,11.902l-8.549,2.199l-0.285,3.022l5.699-2.199l-0.855,6.047l-4.844,0.275l-0.57,9.895l-3.42,0.275L7.313,9.702L22.3,5.031
	L21.561,11.902z"/>
<g>
	<path d="M28.926,17.751c3.487,0,5.434,1.894,5.434,4.956v3.186c0,3.062-1.947,4.956-5.434,4.956c-3.504,0-5.452-1.894-5.452-4.956
		v-3.186C23.475,19.645,25.422,17.751,28.926,17.751z M28.926,20.848c-1.239,0-1.947,0.585-1.947,1.699v3.505
		c0,1.115,0.708,1.699,1.947,1.699c1.222,0,1.93-0.584,1.93-1.699v-3.505C30.856,21.433,30.148,20.848,28.926,20.848z"/>
	<path d="M46.184,22.282c0,1.734-0.708,2.974-1.912,3.646c0.177,0.23,0.336,0.479,0.478,0.762l1.593,3.026
		c0.248,0.478,0.124,0.867-0.46,0.867h-1.912c-0.938,0-1.345-0.229-1.628-0.85l-1.133-2.425c-0.301-0.602-0.602-0.902-1.328-0.902
		h-0.407v3.434c0,0.549-0.177,0.743-0.744,0.743h-2c-0.566,0-0.761-0.194-0.761-0.743V18.76c0-0.549,0.194-0.744,0.761-0.744h5.045
		C44.449,18.016,46.184,19.538,46.184,22.282z M41.387,21.113h-1.912v2.337h1.912c0.743,0,1.168-0.46,1.168-1.187
		C42.555,21.556,42.148,21.113,41.387,21.113z"/>
	<path d="M60.626,18.742v11.115c0,0.549-0.194,0.726-0.761,0.726h-1.93c-0.566,0-0.743-0.177-0.743-0.726v-2.531
		c0-1.168,0.106-2.283,0.779-4.638h-0.195c-0.177,0.585-0.814,2.195-1.186,2.921l-0.991,2c-0.194,0.354-0.372,0.514-0.85,0.514
		h-1.186c-0.478,0-0.655-0.124-0.85-0.514l-1.044-2c-0.372-0.673-0.92-2.301-1.097-2.921h-0.177
		c0.637,2.549,0.726,3.435,0.726,4.655v2.514c0,0.549-0.194,0.726-0.761,0.726h-1.806c-0.566,0-0.761-0.177-0.761-0.726V18.742
		c0-0.566,0.194-0.744,0.761-0.744h1.664c0.619,0,0.796,0.106,1.044,0.549l2.921,5.735l2.921-5.717
		c0.247-0.478,0.406-0.566,0.99-0.566h1.771C60.432,17.999,60.626,18.176,60.626,18.742z"/>
	<path d="M73.229,30.583h-1.912c-0.92,0-1.186-0.194-1.327-0.743l-0.407-1.274H65.76l-0.407,1.274
		c-0.177,0.549-0.408,0.743-1.292,0.743h-1.858c-0.549,0-0.655-0.248-0.478-0.726l4.071-11.222c0.178-0.513,0.407-0.62,0.921-0.62
		h2.018c0.514,0,0.743,0.124,0.921,0.584l4.088,11.257C73.92,30.335,73.761,30.583,73.229,30.583z M67.742,21.237h-0.177
		c0,0,0.018,1.274-0.337,2.461l-0.654,2.088h2.213l-0.655-2.07C67.777,22.512,67.742,21.237,67.742,21.237z"/>
	<path d="M84.682,21.361c0,1.186-0.372,1.982-1.274,2.602v0.071c1.133,0.495,1.788,1.505,1.788,3.044
		c0,2.284-1.859,3.505-4.354,3.505h-5.257c-0.566,0-0.762-0.194-0.762-0.743V18.76c0-0.566,0.195-0.761,0.762-0.761h5.186
		C83.213,17.999,84.682,19.202,84.682,21.361z M80.044,20.848h-1.717v1.947h1.717c0.708,0,1.08-0.266,1.08-0.956
		C81.124,21.149,80.752,20.848,80.044,20.848z M80.381,25.645h-2.054v2.071h2.054c0.761,0,1.133-0.301,1.133-1.044
		C81.514,25.964,81.142,25.645,80.381,25.645z"/>
	<path d="M87.301,18.016h2.089c0.531,0,0.708,0.177,0.708,0.708v11.151c0,0.531-0.177,0.708-0.708,0.708h-2.089
		c-0.531,0-0.708-0.177-0.708-0.708V18.724C86.593,18.193,86.77,18.016,87.301,18.016z"/>
	<path d="M95.514,18.76v8.726h4.266c0.549,0,0.743,0.178,0.743,0.744v1.61c0,0.549-0.194,0.743-0.743,0.743h-7.009
		c-0.566,0-0.762-0.194-0.762-0.743V18.76c0-0.549,0.195-0.744,0.762-0.744h2C95.337,18.016,95.514,18.211,95.514,18.76z"/>
	<path d="M102.434,18.016h2.089c0.531,0,0.708,0.177,0.708,0.708v11.151c0,0.531-0.177,0.708-0.708,0.708h-2.089
		c-0.531,0-0.708-0.177-0.708-0.708V18.724C101.726,18.193,101.902,18.016,102.434,18.016z"/>
	<path d="M116.735,18.76v1.593c0,0.566-0.194,0.761-0.761,0.761h-2.62v8.727c0,0.549-0.194,0.743-0.761,0.743h-2
		c-0.566,0-0.744-0.194-0.744-0.743v-8.727h-2.637c-0.566,0-0.744-0.194-0.744-0.761V18.76c0-0.549,0.178-0.744,0.744-0.744h8.762
		C116.541,18.016,116.735,18.211,116.735,18.76z"/>
	<path d="M128.859,18.76l-4.088,6.956v4.124c0,0.549-0.178,0.743-0.744,0.743h-2c-0.566,0-0.761-0.194-0.761-0.743v-4.124
		l-4.071-6.956c-0.248-0.407-0.177-0.744,0.372-0.744h2.124c0.885,0,1.133,0.036,1.469,0.655l1.894,3.611l1.947-3.611
		c0.337-0.62,0.584-0.655,1.451-0.655h2.036C129.02,18.016,129.09,18.353,128.859,18.76z"/>
</g>
</svg>
